<?xml version="1.0" standalone="no"?>
<!DOCTYPE svg PUBLIC "-//W3C//DTD SVG 20010904//EN"
 "http://www.w3.org/TR/2001/REC-SVG-20010904/DTD/svg10.dtd">
<svg version="1.0" xmlns="http://www.w3.org/2000/svg"
 width="677.000000pt" height="369.000000pt" viewBox="0 0 677.000000 369.000000"
 preserveAspectRatio="xMidYMid meet">

<g transform="translate(0.000000,369.000000) scale(0.100000,-0.100000)"
fill="#000000" stroke="none">
<path d="M2850 2900 c-71 -3 -134 -10 -146 -17 -41 -23 -44 -58 -44 -455 l0
-379 -102 3 -103 3 -3 55 c-4 76 4 111 36 148 18 23 38 34 62 37 34 4 70 35
70 59 0 26 -32 56 -59 56 -34 0 -59 -25 -67 -69 -4 -17 -15 -36 -26 -42 -35
-19 -58 -86 -58 -171 l0 -77 -52 -3 -53 -3 -3 -60 c-2 -55 2 -68 51 -165 l54
-105 54 -5 54 -5 3 -300 c2 -165 0 -324 -3 -353 -6 -49 -8 -52 -34 -52 -44 0
-81 -41 -81 -90 l0 -40 -42 0 c-48 0 -74 -12 -64 -29 10 -15 2172 -16 2182 0
3 6 -7 24 -22 40 -37 39 -40 102 -6 148 30 41 28 51 -13 51 l-35 0 0 78 c0
106 -7 114 -106 121 -74 6 -78 7 -58 21 34 25 44 55 44 133 l0 75 31 11 c18 6
36 11 40 11 13 0 11 -98 -1 -105 -12 -8 -13 -55 -1 -73 11 -18 51 -12 65 10 7
12 7 27 -2 51 -7 18 -12 57 -12 85 0 50 1 52 35 66 24 10 35 22 35 35 0 23
-13 31 -101 64 -242 90 -371 137 -380 137 -5 0 -45 -13 -87 -30 -42 -16 -140
-52 -216 -80 -174 -64 -178 -66 -174 -93 2 -18 21 -29 96 -57 l93 -35 4 -90
c2 -76 6 -92 24 -106 12 -10 21 -19 21 -22 0 -3 -41 -7 -91 -9 -113 -4 -119
-10 -119 -120 0 -71 -2 -78 -20 -78 -11 0 -34 -13 -52 -29 -27 -24 -32 -36
-36 -88 -3 -38 0 -63 7 -67 24 -15 9 -26 -34 -26 -45 0 -45 0 -45 34 0 19 -3
42 -6 51 -8 20 -56 45 -89 45 l-25 0 0 355 0 355 48 0 c58 0 66 8 113 103 l33
67 298 0 c324 0 342 3 366 55 13 28 16 858 3 904 -3 13 -18 32 -31 42 -23 17
-60 19 -560 21 -294 2 -591 1 -660 -2z m1191 -50 c17 -10 19 -22 19 -123 0
-64 -6 -133 -14 -162 -14 -50 -14 -49 -15 80 -1 72 -4 140 -7 153 l-6 22 -634
0 c-556 0 -634 -2 -635 -15 -1 -8 -3 -19 -4 -25 -1 -5 -3 -70 -4 -142 -1 -110
-4 -130 -14 -116 -9 11 -14 64 -16 166 -2 136 0 151 16 161 25 14 1287 15
1314 1z m-61 -455 l0 -385 -259 0 c-250 0 -259 1 -264 20 -5 19 -14 20 -336
20 l-331 0 0 365 0 365 595 0 595 0 0 -385z m-564 -407 c-3 -13 -6 -29 -6 -36
0 -10 -110 -12 -532 -10 l-532 3 -3 33 -4 32 542 0 541 0 -6 -22z m661 -263
c68 -28 59 -31 -26 -9 l-61 15 -153 -56 c-83 -31 -171 -63 -195 -72 -28 -11
-46 -13 -53 -6 -12 12 388 164 413 157 10 -3 44 -16 75 -29z m-1006 6 c22 -17
24 -28 26 -108 2 -60 0 -82 -6 -68 -8 18 -10 18 -10 2 -1 -16 -10 -17 -108
-12 -60 4 -132 11 -162 16 -38 6 -58 5 -67 -2 -11 -9 -20 -7 -40 5 -18 13 -29
14 -38 7 -10 -8 -17 -7 -26 4 -18 22 -30 19 -30 -8 0 -13 -4 -27 -9 -32 -5 -6
-11 -124 -13 -263 -4 -227 -8 -275 -22 -261 -4 3 -10 704 -7 732 1 4 111 7
245 7 225 0 246 -1 267 -19z m707 -349 c2 -30 -1 -52 -7 -52 -16 0 -31 36 -31
75 0 29 3 36 18 33 13 -2 18 -15 20 -56z m-128 -198 l0 -55 -32 3 c-30 3 -33
6 -36 42 -5 53 3 66 38 66 30 0 30 0 30 -56z m70 1 c0 -30 -4 -55 -10 -55 -5
0 -10 25 -10 55 0 30 5 55 10 55 6 0 10 -25 10 -55z m540 0 l0 -55 -245 0
-245 0 0 55 0 55 245 0 245 0 0 -55z m94 38 c9 -27 -8 -78 -27 -81 -13 -3 -17
4 -17 25 0 15 -3 38 -6 51 -5 19 -2 22 19 22 16 0 28 -7 31 -17z m-437 -195
c-3 -10 -53 -13 -204 -13 -155 0 -203 -3 -216 -14 -10 -8 -17 -9 -17 -3 0 6
10 18 22 26 19 13 57 16 221 16 155 0 198 -3 194 -12z m481 0 c-4 -10 -54 -14
-186 -18 -100 -3 -182 -8 -182 -12 0 -5 0 -12 0 -18 0 -6 67 -10 181 -10 140
0 180 -3 177 -12 -4 -10 -45 -14 -152 -16 -133 -2 -147 -4 -144 -20 3 -15 21
-17 156 -20 126 -2 152 -5 152 -17 0 -13 -30 -15 -199 -15 -196 0 -200 0 -227
24 -39 33 -39 89 0 122 27 24 31 24 227 24 156 0 200 -3 197 -12z m-1340 -80
c-4 -10 -76 -14 -306 -16 -273 -2 -336 3 -289 21 6 3 144 6 305 6 231 1 293
-2 290 -11z"/>
<path d="M3195 2657 c-3 -7 -4 -129 -3 -272 l3 -260 65 0 65 0 3 93 c3 90 4
93 25 90 16 -2 37 -29 76 -96 l53 -93 72 3 c66 3 71 5 69 24 -1 12 -24 58 -51
102 l-50 81 38 40 c90 94 48 256 -75 290 -58 16 -284 15 -290 -2z m299 -47
c44 -22 67 -59 68 -111 1 -59 -24 -106 -67 -126 -40 -19 -40 -19 -20 -57 32
-60 -21 -52 -57 10 -19 32 -23 34 -74 34 l-54 0 -1 -47 c-1 -27 -1 -51 0 -55
2 -13 -8 -9 -27 10 -16 16 -20 43 -26 184 -3 90 -3 168 1 172 14 14 225 2 257
-14z"/>
<path d="M3298 2574 c-5 -4 -8 -45 -8 -91 l0 -83 33 -1 c37 -2 83 -2 113 0 12
1 33 13 48 27 34 35 35 83 2 121 -22 25 -31 28 -103 31 -43 2 -81 0 -85 -4z
m150 -50 c26 -18 28 -41 5 -66 -12 -13 -30 -18 -70 -18 l-53 0 0 50 0 50 48 0
c27 0 57 -7 70 -16z"/>
</g>
</svg>
